<svg xmlns="http://www.w3.org/2000/svg" width="960" height="520" viewBox="0 0 960 520">
<rect width="100%" height="100%" fill="#ffffff"/>
<text x="480.0" y="30" text-anchor="middle" font-family="Arial, sans-serif" font-size="19" font-weight="700">Atom-pipeline model comparison</text>
<line x1="90" y1="410" x2="930" y2="410" stroke="#111827"/>
<line x1="90" y1="70" x2="90" y2="410" stroke="#111827"/>
<line x1="90" y1="410.0" x2="930" y2="410.0" stroke="#e5e7eb"/>
<text x="78" y="414.0" text-anchor="end" font-family="Arial" font-size="12">0.00</text>
<line x1="90" y1="342.0" x2="930" y2="342.0" stroke="#e5e7eb"/>
<text x="78" y="346.0" text-anchor="end" font-family="Arial" font-size="12">0.20</text>
<line x1="90" y1="274.0" x2="930" y2="274.0" stroke="#e5e7eb"/>
<text x="78" y="278.0" text-anchor="end" font-family="Arial" font-size="12">0.40</text>
<line x1="90" y1="206.0" x2="930" y2="206.0" stroke="#e5e7eb"/>
<text x="78" y="210.0" text-anchor="end" font-family="Arial" font-size="12">0.60</text>
<line x1="90" y1="138.0" x2="930" y2="138.0" stroke="#e5e7eb"/>
<text x="78" y="142.0" text-anchor="end" font-family="Arial" font-size="12">0.80</text>
<line x1="90" y1="70.0" x2="930" y2="70.0" stroke="#e5e7eb"/>
<text x="78" y="74.0" text-anchor="end" font-family="Arial" font-size="12">1.00</text>
<text x="230.0" y="438" text-anchor="middle" font-family="Arial" font-size="13">Accuracy</text>
<rect x="190.0" y="139.7" width="38.0" height="270.3" rx="3" fill="#2563eb"/>
<text x="209.0" y="132.7" text-anchor="middle" font-family="Arial" font-size="11">0.795</text>
<rect x="232.0" y="170.3" width="38.0" height="239.7" rx="3" fill="#f97316"/>
<text x="251.0" y="163.3" text-anchor="middle" font-family="Arial" font-size="11">0.705</text>
<text x="510.0" y="438" text-anchor="middle" font-family="Arial" font-size="13">Macro-F1</text>
<rect x="470.0" y="140.2" width="38.0" height="269.8" rx="3" fill="#2563eb"/>
<text x="489.0" y="133.2" text-anchor="middle" font-family="Arial" font-size="11">0.793</text>
<rect x="512.0" y="170.4" width="38.0" height="239.6" rx="3" fill="#f97316"/>
<text x="531.0" y="163.4" text-anchor="middle" font-family="Arial" font-size="11">0.705</text>
<text x="790.0" y="438" text-anchor="middle" font-family="Arial" font-size="13">MCC</text>
<rect x="750.0" y="161.7" width="38.0" height="248.3" rx="3" fill="#2563eb"/>
<text x="769.0" y="154.7" text-anchor="middle" font-family="Arial" font-size="11">0.730</text>
<rect x="792.0" y="202.1" width="38.0" height="207.9" rx="3" fill="#f97316"/>
<text x="811.0" y="195.1" text-anchor="middle" font-family="Arial" font-size="11">0.611</text>
<rect x="302.0" y="473" width="14" height="14" rx="2" fill="#2563eb"/>
<text x="322.0" y="485" font-family="Arial" font-size="12">mDeBERTa-v3-base 2mil7</text>
<rect x="504.0" y="473" width="14" height="14" rx="2" fill="#f97316"/>
<text x="524.0" y="485" font-family="Arial" font-size="12">XLM-R-large XNLI</text>
<text x="22" y="240.0" transform="rotate(-90 22 240.0)" text-anchor="middle" font-family="Arial" font-size="13">Score</text>
</svg>